<svg xmlns="http://www.w3.org/2000/svg" viewBox="0 0 500 300"><defs><style>.cls-1{fill:#010101;}.cls-2{fill:#fff;}</style></defs><g id="Layer_5" data-name="Layer 5"><rect class="cls-1" x="19.19" y="73.01" width="153.99" height="153.99" rx="20.64"/><path class="cls-2" d="M82.48,188.45a13.48,13.48,0,0,1-13.6,13.69,13.62,13.62,0,1,1,0-27.24C76.07,174.78,82.85,181.28,82.48,188.45Z"/><path class="cls-2" d="M126.93,179q-6.51-5.74-13.06-11.43c-.53-.46-.87-.75.12-1.08a32.6,32.6,0,0,0,14.89-10.37c6.18-7.38,9.06-15.73,8.06-25.44a33.21,33.21,0,0,0-5-14.65A38,38,0,0,0,115,101.54a43.9,43.9,0,0,0-18.79-3.72c-4.35,0-8.71,0-13.07,0H68.66a20.88,20.88,0,0,0-4,.39c-4.33.84-8.21,4.91-9.16,9.35-1.64,7.59,5,14.58,12,14.4,7.62-.2,15.25-.09,22.87,0,3.38,0,6.75-.21,10.15.38a16.9,16.9,0,0,1,9.15,4.31,9.84,9.84,0,0,1,0,14.72,16.25,16.25,0,0,1-11.1,4.53c-4.27.15-8.54,0-12.81.06a15.8,15.8,0,0,0-5.13.76,11.94,11.94,0,0,0-6,18.07,26,26,0,0,0,4.81,4.74l.68.6h0l33,28.86c4.07,3.56,8.61,4.09,13.47,1.94a12,12,0,0,0,5.72-15.79C131,182.53,129,180.79,126.93,179Z"/><path class="cls-1" d="M375.78,132.25v56.58c0,20-15.6,28.47-31.45,28.47-12.38,0-22.75-4.64-28.23-14.41l15.25-8.81c2.26,4.16,5.72,7.5,13.58,7.5,8.34,0,13.46-4.29,13.46-12.75v-5.48c-3.93,4.89-9.65,7.75-17.39,7.75-16.92,0-29.3-13.82-29.3-30.26s12.38-30.26,29.3-30.26c7.74,0,13.46,2.86,17.39,7.75v-6.08Zm-17.39,28.59c0-8.22-6-13.82-14.41-13.82s-14.42,5.6-14.42,13.82,6,13.82,14.42,13.82S358.39,169.06,358.39,160.84Z"/><path class="cls-1" d="M380,106.52h17.87v87H380Z"/><path class="cls-1" d="M462.85,133.92l-20.37,57.77c-6.67,18.94-17.28,26.45-34,25.61V200.63c8.34,0,12.27-2.62,14.89-9.89l-23.71-56.82h19.66l13.22,36.45,11.2-36.45Z"/><path class="cls-1" d="M257.7,176.91l-9.11-15.71a29.28,29.28,0,0,0,6-4.1,30.57,30.57,0,0,1,9.25-18.24c.05-.61.07-1.22.07-1.84a28.51,28.51,0,0,0-28.59-28.59H202v83.38h19.06v-27.4h9l15.73,27.4h20.48l-6.94-12A28.15,28.15,0,0,1,257.7,176.91Zm-22.33-29.17H221.08V126.3h14.29c5.24,0,9.53,4.64,9.53,10.72S240.61,147.74,235.37,147.74Z"/><path class="cls-1" d="M316.24,182.31a26.86,26.86,0,0,1-2.57-3.06L302.77,173a15.55,15.55,0,0,1-11.43,4.53c-6.55,0-12-2.15-14.3-8.34h31.81a31.9,31.9,0,0,1-1.1-8.34,31.16,31.16,0,0,1,6-18.54,29.4,29.4,0,0,0-24-11.72c-18.82,0-31.69,13.7-31.69,31.45s12.63,31.45,33,31.45C301.89,193.48,310.41,189.69,316.24,182.31Zm-26.57-35.88c5.36,0,10.72,2.5,12.63,9.41H276.69C278.36,149.76,282.88,146.43,289.67,146.43Z"/><circle class="cls-1" cx="468.09" cy="179.43" r="12.72"/></g></svg>