<svg xmlns="http://www.w3.org/2000/svg" viewBox="0 0 2000 1200"><defs><style>.cls-1{fill:#010101;}.cls-2{fill:#ee416f;}.cls-3{fill:#fff;}</style></defs><g id="Layer_5" data-name="Layer 5"><rect class="cls-1" x="53.29" y="284.19" width="631.62" height="631.62" rx="84.66"/><path class="cls-2" d="M312.89,757.7c.64,30.84-24.31,56.08-55.79,56.15-30.54.07-55.83-25.21-56-55.82-.12-30.41,25.29-55.4,55.92-55.91C286.6,701.62,314.42,728.31,312.89,757.7Z"/><path class="cls-3" d="M495.2,718.87Q468.53,695.31,441.64,672c-2.16-1.89-3.58-3.09.5-4.44,24.52-8.17,44.56-22.81,61.08-42.54,25.34-30.25,37.13-64.53,33.06-104.32a136.55,136.55,0,0,0-20.52-60.09c-17-26.91-40.55-46.33-69.35-59.39C422,390.14,396.1,385.74,369.33,386c-17.86.15-35.74,0-53.61,0q-29.75,0-59.5,0a83.74,83.74,0,0,0-16.45,1.58C222,391,206.09,407.71,202.16,425.94c-6.71,31.13,20.53,59.81,49.09,59.06,31.25-.81,62.54-.39,93.81-.08,13.86.13,27.68-.89,41.61,1.55,14.38,2.52,27.05,7.57,37.55,17.68,18.13,17.46,18.27,42.75.17,60.35-12.6,12.26-28.24,18-45.52,18.62-17.49.61-35,0-52.53.23-7.11.08-14.15.69-21,3.13-31,11-43.07,46.88-24.82,74.09,5.27,7.86,12.79,13.36,19.73,19.47L303,682.5h0L438.45,800.85c16.69,14.62,35.28,16.8,55.25,8C516,798.93,529.23,769,517.14,744,512,733.45,503.59,726.28,495.2,718.87Z"/><path class="cls-1" d="M1515.92,527.2V759.28c0,82.09-64,116.78-129,116.78-50.81,0-93.32-19.06-115.8-59.12l62.54-36.16c9.29,17.1,23.46,30.78,55.7,30.78,34.21,0,55.21-17.59,55.21-52.28V736.81c-16.12,20-39.57,31.76-71.33,31.76-69.38,0-120.19-56.68-120.19-124.1s50.81-124.11,120.19-124.11c31.76,0,55.21,11.73,71.33,31.76V527.2Zm-71.34,117.27c0-33.72-24.42-56.68-59.11-56.68s-59.12,23-59.12,56.68,24.43,56.67,59.12,56.67S1444.58,678.18,1444.58,644.47Z"/><path class="cls-1" d="M1533,421.66h73.29V778.34H1533Z"/><path class="cls-1" d="M1873,534l-83.55,237c-27.36,77.68-70.84,108.46-139.25,105v-68.4c34.2,0,50.33-10.75,61.08-40.55L1614.08,534h80.61l54.24,149.51L1794.86,534Z"/><path class="cls-1" d="M1031.59,710.36l-37.35-64.43A118.73,118.73,0,0,0,1019,629.14c4.18-29.74,17.58-55.71,38-74.82.18-2.51.28-5,.28-7.57A117,117,0,0,0,940,429.49H803.2v342h78.17V659.12h37.14L983,771.5h84l-28.49-49.13A121,121,0,0,1,1031.59,710.36ZM940,590.72H881.37v-88H940c21.5,0,39.09,19.06,39.09,44S961.5,590.72,940,590.72Z"/><path class="cls-1" d="M1271.68,732.54A120.48,120.48,0,0,1,1261.14,720l-44.67-25.69c-9.78,10.75-26.88,18.57-46.91,18.57-26.87,0-49.35-8.8-58.63-34.2h130.46a130.93,130.93,0,0,1-4.51-34.2,127.79,127.79,0,0,1,24.64-76.06c-22.22-29.69-57.18-48-98.31-48-77.2,0-130,56.19-130,129s51.79,129,135.34,129C1212.84,778.34,1247.77,762.79,1271.68,732.54Zm-109-147.19c22,0,44,10.26,51.79,38.59h-105C1116.3,599,1134.87,585.35,1162.72,585.35Z"/><circle class="cls-2" cx="1894.55" cy="720.7" r="52.16"/></g></svg>